<svg id="Layer_1" enable-background="new 0 0 512.066 512.066" height="512" viewBox="0 0 512.066 512.066" width="512" xmlns="http://www.w3.org/2000/svg"><g><g><g><path d="m137.792 158.901c-6.141 0-11.776-4.067-13.496-10.274l-17.903-64.58c-2.068-7.457 2.302-15.179 9.76-17.247 7.46-2.065 15.18 2.303 17.247 9.761l17.903 64.58c2.068 7.457-2.302 15.179-9.76 17.247-1.252.347-2.512.513-3.751.513z" fill="#fdbf00"/></g></g><path d="m229.735 37.52-124.189-36.762c-5.133-1.52-10.686.02-14.306 3.966l-87.534 95.458c-4.225 4.608-4.887 11.458-1.622 16.79 2.593 4.232 7.161 6.695 11.949 6.695 1.243 0 2.502-.166 3.744-.51l211.724-58.696c6.025-1.67 10.215-7.131 10.269-13.383.055-6.252-4.039-11.784-10.035-13.558z" fill="#89f900"/><g><path d="m406.107 169.115c-8.284 0-15-6.716-15-15v-138.682c0-8.284 6.716-15 15-15h90.958c8.284 0 15 6.716 15 15s-6.716 15-15 15h-75.958v123.682c0 8.284-6.715 15-15 15z" fill="#00a1ff"/></g><path d="m188.442 501.854c23.335 7.119 43.812 10.024 68.162 10.024 134.6 0 243.715-109.115 243.715-243.715 0-39.942-9.619-77.633-26.653-110.899-5.618-10.972-17.007-17.781-29.334-17.781h-377.571c-11.026 0-21.135 6.131-26.245 15.902-17.641 33.723-27.626 72.082-27.626 112.778 0 16.554 5.239 56.185 9.444 72.228" fill="#f2e8e6"/><path d="m444.332 139.483h-188.598v372.388c.292.001.578.006.871.006 134.6 0 243.715-109.115 243.715-243.715 0-39.942-9.619-77.633-26.653-110.899-5.619-10.971-17.008-17.78-29.335-17.78z" fill="#e6d3cf"/><g><path d="m493.565 211.004h-282.933c-6.117 0-11.939 2.626-15.988 7.212l-9.501 10.762c-16.11 18.247-44.273 19.122-61.485 1.911l-14.97-14.97c-3.982-3.982-9.378-6.228-15.01-6.246l-73.622-.244c-3.075 12.711-6.941 33.401-7.168 58.736-.338 37.89 7.643 66.104 9.444 72.228 31.871 108.37 144.452 154.747 166.11 161.461 15.724 4.875 31.597 7.364 31.597 7.364s18.122 2.66 36.565 2.66c134.6 0 243.715-109.115 243.715-243.715.001-19.688-2.344-38.826-6.754-57.159z" fill="#b34f03"/></g><path d="m232.975 383.095c-.979-25.34-21.129-46.208-46.42-48.068-5.47-.402-10.763.089-15.764 1.325-2.186.54-4.337-.924-4.675-3.15-3.669-24.108-24.477-42.581-49.609-42.581-25.254 0-46.141 18.652-49.661 42.93-.296 2.041-2.283 3.396-4.281 2.887-5.673-1.445-11.728-1.93-17.995-1.237-24.059 2.661-42.981 22.543-44.472 46.702-1.273 20.642 9.941 38.792 26.804 47.642 2.267 1.19 3.037 4.021 1.712 6.213-4.969 8.218-7.648 17.976-7.151 28.39 1.223 25.639 22.037 46.454 47.676 47.678 18.726.894 35.323-8.483 44.666-22.979 1.703-2.643 5.622-2.642 7.325 0 9.339 14.489 25.924 23.865 44.64 22.98 25.791-1.219 46.672-22.256 47.718-48.054.429-10.583-2.428-20.469-7.625-28.737-1.349-2.146-.646-4.961 1.562-6.206 15.808-8.909 26.308-26.127 25.55-45.735z" fill="#ff3997"/><circle cx="116.507" cy="401.252" fill="#fff261" r="38.439"/><path d="m255.734 211.004v300.871c.29.001.58.004.871.004 134.6 0 243.715-109.115 243.715-243.715 0-19.688-2.345-38.826-6.755-57.16z" fill="#913f02"/><g fill="#552001"><circle cx="354.314" cy="334.598" r="13.739"/><circle cx="318.826" cy="386.416" r="13.739"/><circle cx="387.943" cy="386.058" r="13.739"/></g></g></svg>