<svg height="512" viewBox="0 0 64 64" width="512" xmlns="http://www.w3.org/2000/svg" xmlns:xlink="http://www.w3.org/1999/xlink"><linearGradient id="New_Gradient_Swatch_1" gradientUnits="userSpaceOnUse" x1="28" x2="28" y1=".283" y2="63.582"><stop offset="0" stop-color="#fff33b"/><stop offset=".014" stop-color="#fee72e"/><stop offset=".042" stop-color="#fed51b"/><stop offset=".07" stop-color="#fdca10"/><stop offset=".1" stop-color="#fdc70c"/><stop offset=".4" stop-color="#f3903f"/><stop offset=".8" stop-color="#ed683c"/><stop offset="1" stop-color="#e93e3a"/></linearGradient><linearGradient id="New_Gradient_Swatch_1-2" x1="19" x2="19" xlink:href="#New_Gradient_Swatch_1" y1=".283" y2="63.582"/><linearGradient id="New_Gradient_Swatch_1-3" x1="7" x2="7" xlink:href="#New_Gradient_Swatch_1" y1=".283" y2="63.582"/><linearGradient id="New_Gradient_Swatch_1-4" x1="31" x2="31" xlink:href="#New_Gradient_Swatch_1" y1=".283" y2="63.582"/><linearGradient id="New_Gradient_Swatch_1-5" gradientTransform="matrix(.259 .966 -.966 .259 38.321 -34.238)" x1="41.47" x2="41.47" xlink:href="#New_Gradient_Swatch_1" y1=".283" y2="63.582"/><linearGradient id="New_Gradient_Swatch_1-6" gradientTransform="matrix(.5 .866 -.866 .5 32.717 -35.963)" x1="47.5" x2="47.5" xlink:href="#New_Gradient_Swatch_1" y1=".283" y2="63.582"/><linearGradient id="New_Gradient_Swatch_1-7" gradientTransform="matrix(.707 .707 -.707 .707 25.556 -33.054)" x1="52.678" x2="52.678" xlink:href="#New_Gradient_Swatch_1" y1=".283" y2="63.582"/><linearGradient id="New_Gradient_Swatch_1-8" gradientTransform="matrix(.866 .5 -.5 .866 17.338 -25.712)" x1="56.651" x2="56.651" xlink:href="#New_Gradient_Swatch_1" y1=".283" y2="63.582"/><linearGradient id="New_Gradient_Swatch_1-9" gradientTransform="matrix(.966 .259 -.259 .966 8.626 -14.443)" x1="59.148" x2="59.148" xlink:href="#New_Gradient_Swatch_1" y1=".283" y2="63.582"/><linearGradient id="New_Gradient_Swatch_1-10" x1="60" x2="60" xlink:href="#New_Gradient_Swatch_1" y1=".283" y2="63.582"/><linearGradient id="New_Gradient_Swatch_1-11" gradientTransform="matrix(.259 .966 -.966 .259 80.993 -28.621)" x1="59.148" x2="59.148" xlink:href="#New_Gradient_Swatch_1" y1=".283" y2="63.582"/><linearGradient id="New_Gradient_Swatch_1-12" gradientTransform="matrix(.5 .866 -.866 .5 66.866 -26.811)" x1="56.651" x2="56.651" xlink:href="#New_Gradient_Swatch_1" y1=".283" y2="63.582"/><linearGradient id="New_Gradient_Swatch_1-13" gradientTransform="matrix(.707 .707 -.707 .707 50.556 -22.699)" x1="52.678" x2="52.678" xlink:href="#New_Gradient_Swatch_1" y1=".283" y2="63.582"/><linearGradient id="New_Gradient_Swatch_1-14" gradientTransform="matrix(.866 .5 -.5 .866 33.187 -16.562)" x1="47.5" x2="47.5" xlink:href="#New_Gradient_Swatch_1" y1=".283" y2="63.582"/><linearGradient id="New_Gradient_Swatch_1-15" gradientTransform="matrix(.966 .259 -.259 .966 15.951 -8.822)" x1="41.47" x2="41.47" xlink:href="#New_Gradient_Swatch_1" y1=".283" y2="63.582"/><g id="Online"><path d="m36 13.05v-8.05a3.009 3.009 0 0 0 -3-3h-28a3.009 3.009 0 0 0 -3 3v54a3.009 3.009 0 0 0 3 3h28a3.009 3.009 0 0 0 3-3v-8.05a18.975 18.975 0 0 0 0-37.9zm15.95 17.95h-7.97a37.784 37.784 0 0 0 -.97-7.79 19.225 19.225 0 0 0 4.37-2.83 16.943 16.943 0 0 1 4.57 10.62zm-6.02-12.01a16.516 16.516 0 0 1 -3.46 2.27 17.458 17.458 0 0 0 -2.83-5.6 17.015 17.015 0 0 1 6.29 3.33zm-18.94 4.22a37.784 37.784 0 0 0 -.97 7.79h-7.97a16.943 16.943 0 0 1 4.57-10.62 19.225 19.225 0 0 0 4.37 2.83zm-2.92-4.22a17.015 17.015 0 0 1 6.29-3.33 17.458 17.458 0 0 0 -2.83 5.6 16.516 16.516 0 0 1 -3.46-2.27zm1.95 14.01a37.784 37.784 0 0 0 .97 7.79 19.225 19.225 0 0 0 -4.37 2.83 16.943 16.943 0 0 1 -4.57-10.62zm1.51 9.74a17.458 17.458 0 0 0 2.83 5.6 17.015 17.015 0 0 1 -6.29-3.33 16.516 16.516 0 0 1 3.46-2.27zm.49-9.74h13.96a35.694 35.694 0 0 1 -.83 7.04 18.7 18.7 0 0 0 -12.3 0 35.694 35.694 0 0 1 -.83-7.04zm0-2a35.694 35.694 0 0 1 .83-7.04 18.7 18.7 0 0 0 12.3 0 35.694 35.694 0 0 1 .83 7.04zm12.61-8.98a16.662 16.662 0 0 1 -11.26 0c1.36-4.4 3.54-7.02 5.63-7.02s4.27 2.62 5.63 7.02zm-11.91-18.02-.31 1.24a1 1 0 0 1 -.97.76h-16.88a1 1 0 0 1 -.97-.76l-.31-1.24zm5.28 55a1 1 0 0 1 -1 1h-28a1 1 0 0 1 -1-1v-54a1 1 0 0 1 1-1h2.22l.43 1.73a3 3 0 0 0 2.91 2.27h16.88a3 3 0 0 0 2.91-2.27l.43-1.73h2.22a1 1 0 0 1 1 1v8.05a18.975 18.975 0 0 0 0 37.9zm1-10c-2.09 0-4.27-2.62-5.63-7.02a16.662 16.662 0 0 1 11.26 0c-1.36 4.4-3.54 7.02-5.63 7.02zm4.64-.66a17.458 17.458 0 0 0 2.83-5.6 16.516 16.516 0 0 1 3.46 2.27 17.015 17.015 0 0 1 -6.29 3.33zm7.74-4.72a19.225 19.225 0 0 0 -4.37-2.83 37.784 37.784 0 0 0 .97-7.79h7.97a16.943 16.943 0 0 1 -4.57 10.62z" fill="url(#New_Gradient_Swatch_1)"/><path d="m10 56h18v2h-18z" fill="url(#New_Gradient_Swatch_1-2)"/><path d="m6 56h2v2h-2z" fill="url(#New_Gradient_Swatch_1-3)"/><path d="m30 56h2v2h-2z" fill="url(#New_Gradient_Swatch_1-4)"/><path d="m39.47 6.852h4v2h-4z" fill="url(#New_Gradient_Swatch_1-5)" transform="matrix(.259 -.966 .966 .259 23.153 45.877)"/><path d="m45.5 9.349h4v2h-4z" fill="url(#New_Gradient_Swatch_1-6)" transform="matrix(.5 -.866 .866 .5 14.791 46.314)"/><path d="m50.678 13.322h4v2h-4z" fill="url(#New_Gradient_Swatch_1-7)" transform="matrix(.707 -.707 .707 .707 5.302 41.444)"/><path d="m54.651 18.5h4v2h-4z" fill="url(#New_Gradient_Swatch_1-8)" transform="matrix(.866 -.5 .5 .866 -2.161 30.936)"/><path d="m57.148 24.53h4v2h-4z" fill="url(#New_Gradient_Swatch_1-9)" transform="matrix(.966 -.259 .259 .966 -4.593 16.184)"/><path d="m58 31h4v2h-4z" fill="url(#New_Gradient_Swatch_1-10)"/><path d="m58.148 36.47h2v4h-2z" fill="url(#New_Gradient_Swatch_1-11)" transform="matrix(.259 -.966 .966 .259 6.676 85.642)"/><path d="m55.65 42.5h2v4h-2z" fill="url(#New_Gradient_Swatch_1-12)" transform="matrix(.5 -.866 .866 .5 -10.212 71.313)"/><path d="m51.678 47.678h2v4h-2z" fill="url(#New_Gradient_Swatch_1-13)" transform="matrix(.707 -.707 .707 .707 -19.699 51.799)"/><path d="m46.5 51.651h2v4h-2z" fill="url(#New_Gradient_Swatch_1-14)" transform="matrix(.866 -.5 .5 .866 -20.461 30.936)"/><path d="m40.471 54.148h2v4h-2z" fill="url(#New_Gradient_Swatch_1-15)" transform="matrix(.966 -.259 .259 .966 -13.123 12.651)"/></g></svg>