<?xml version="1.0" standalone="no"?>
<!DOCTYPE svg PUBLIC "-//W3C//DTD SVG 20010904//EN"
 "http://www.w3.org/TR/2001/REC-SVG-20010904/DTD/svg10.dtd">
<svg version="1.0" xmlns="http://www.w3.org/2000/svg"
 width="512.000000pt" height="512.000000pt" viewBox="0 0 512.000000 512.000000"
 preserveAspectRatio="xMidYMid meet">
<metadata>
Created by potrace 1.16, written by Peter Selinger 2001-2019
</metadata>
<g transform="translate(0.000000,512.000000) scale(0.100000,-0.100000)"
fill="#000000" stroke="none">
<path d="M1480 5114 c-177 -32 -303 -73 -430 -140 -339 -179 -580 -502 -661
-887 -30 -143 -30 -370 0 -514 107 -510 489 -895 1001 -1008 103 -23 332 -31
439 -15 568 81 1009 511 1103 1074 15 91 15 321 0 412 -76 459 -401 854 -827
1008 -153 55 -229 68 -420 71 -99 2 -191 1 -205 -1z m261 -414 c16 -9 19 -22
19 -78 0 -39 5 -76 13 -85 7 -11 41 -24 81 -32 88 -19 156 -43 180 -66 18 -17
18 -19 -3 -91 -32 -106 -42 -128 -59 -128 -8 0 -47 12 -86 26 -96 35 -228 44
-291 20 -56 -22 -75 -48 -75 -102 0 -60 34 -95 138 -145 48 -23 128 -61 178
-85 114 -55 180 -113 223 -197 112 -221 0 -465 -252 -546 -49 -16 -57 -34 -57
-128 0 -48 -5 -84 -12 -91 -14 -14 -166 -16 -187 -3 -10 7 -16 36 -19 95 -2
48 -8 88 -12 91 -3 2 -48 13 -98 24 -106 23 -187 56 -206 83 -12 17 -11 32 11
111 31 117 38 125 89 99 133 -68 328 -89 411 -44 102 54 97 184 -9 245 -24 14
-93 46 -155 72 -62 26 -138 63 -170 84 -142 92 -200 221 -168 374 27 129 89
200 238 272 l82 40 5 88 c4 63 9 90 20 97 20 13 147 13 171 0z"/>
<path d="M3726 3915 c-216 -45 -413 -162 -506 -302 -17 -26 -44 -93 -61 -148
-57 -188 -101 -294 -174 -420 -149 -254 -406 -488 -676 -614 -485 -227 -1068
-183 -1506 113 -46 31 -87 56 -91 56 -4 0 -22 -39 -40 -87 -79 -213 -107 -388
-99 -608 10 -251 61 -436 193 -695 92 -182 148 -266 280 -421 190 -224 249
-360 273 -629 9 -99 12 -107 41 -132 l30 -28 381 0 c368 0 382 1 410 20 36 26
49 72 49 173 l0 78 73 -8 c39 -4 156 -7 260 -7 l187 1 0 -79 c0 -45 6 -93 14
-112 28 -67 19 -66 443 -66 l383 0 32 29 33 29 6 153 c11 262 48 338 284 579
241 246 357 418 440 653 l28 77 97 0 c121 0 169 21 215 95 l30 48 3 288 c2
180 -1 302 -7 327 -17 63 -51 105 -110 135 -48 24 -66 27 -148 27 -80 0 -94 3
-100 18 -3 9 -23 58 -43 107 -83 198 -197 362 -376 541 -129 128 -132 132
-139 185 -20 141 -4 231 66 375 61 127 64 168 16 220 -40 43 -86 51 -191 29z
m44 -1207 c60 -31 90 -77 90 -140 0 -82 -42 -137 -121 -158 -57 -16 -109 2
-152 49 -62 68 -59 157 5 220 54 53 112 62 178 29z"/>
</g>
</svg>
