<?xml version="1.0" standalone="no"?>
<!DOCTYPE svg PUBLIC "-//W3C//DTD SVG 20010904//EN"
 "http://www.w3.org/TR/2001/REC-SVG-20010904/DTD/svg10.dtd">
<svg version="1.0" xmlns="http://www.w3.org/2000/svg"
 width="260.000000pt" height="260.000000pt" viewBox="0 0 260.000000 260.000000"
 preserveAspectRatio="xMidYMid meet">
<metadata>
Created by potrace 1.16, written by Peter Selinger 2001-2019
</metadata>
<g transform="translate(0.000000,260.000000) scale(0.100000,-0.100000)"
fill="#000000" stroke="none">
<path d="M2047 1940 c-21 -6 -329 -149 -685 -319 l-648 -310 -199 65 -200 65
-49 -23 -49 -24 115 -125 c155 -168 233 -237 275 -245 115 -22 416 53 648 161
l97 45 -5 -33 c-15 -85 -80 -757 -75 -763 4 -3 51 16 105 42 l98 49 161 450
c89 248 168 458 175 467 8 9 111 63 229 119 118 56 229 112 247 125 82 62 113
146 73 197 -12 15 -38 35 -58 43 -44 19 -200 27 -255 14z"/>
<path d="M767 1859 c-56 -28 -77 -45 -75 -56 2 -9 78 -65 170 -125 l168 -107
162 76 c90 41 166 78 170 82 9 8 -468 172 -497 171 -11 -1 -55 -19 -98 -41z"/>
</g>
</svg>
