<?xml version="1.0" standalone="no"?>
<!DOCTYPE svg PUBLIC "-//W3C//DTD SVG 20010904//EN"
 "http://www.w3.org/TR/2001/REC-SVG-20010904/DTD/svg10.dtd">
<svg version="1.0" xmlns="http://www.w3.org/2000/svg"
 width="999.000000pt" height="1327.000000pt" viewBox="0 0 999.000000 1327.000000"
 preserveAspectRatio="xMidYMid meet">
<metadata>
Created by potrace 1.16, written by Peter Selinger 2001-2019
</metadata>
<g transform="translate(0.000000,1327.000000) scale(0.100000,-0.100000)"
fill="#000000" stroke="none">
<path d="M5142 13203 c-287 -281 -339 -791 -134 -1300 12 -29 20 -53 18 -53
-2 0 -28 37 -57 83 -391 602 -896 961 -1532 1086 -139 28 -234 39 -369 46
l-113 6 110 -39 c146 -51 268 -112 390 -193 128 -86 226 -170 510 -438 245
-231 461 -426 588 -530 42 -35 77 -65 77 -67 0 -2 -39 22 -87 53 -368 237
-843 415 -1293 482 -853 127 -1641 -83 -2300 -613 -140 -113 -505 -482 -430
-435 508 319 990 481 1579 530 250 21 653 3 1038 -46 209 -27 987 -162 1213
-210 l65 -14 -65 5 c-378 28 -743 5 -1115 -72 -719 -148 -1507 -506 -2175
-988 -233 -168 -521 -409 -713 -595 -75 -72 -327 -346 -327 -355 0 -3 53 32
117 77 665 468 1494 892 2238 1143 620 210 1160 329 1760 389 83 8 173 15 200
14 l50 -1 -65 -14 c-702 -151 -1211 -837 -1439 -1937 -136 -656 -154 -1444
-51 -2156 11 -74 21 -136 24 -138 2 -2 7 33 11 79 11 138 44 383 75 564 196
1147 648 2116 1363 2921 l91 102 18 -27 c14 -21 16 -38 12 -78 -21 -173 165
-334 384 -334 94 0 198 42 276 111 l34 29 21 -62 c620 -1911 863 -2692 1080
-3473 411 -1483 641 -2749 760 -4180 54 -655 82 -1279 96 -2190 4 -209 8 -381
9 -383 2 -1 261 7 577 18 316 11 598 20 627 20 l52 0 0 248 c0 276 -14 815
-30 1142 -109 2240 -469 3958 -1290 6165 -255 686 -611 1561 -1123 2762 l-95
222 63 29 c70 33 125 84 155 142 11 22 23 40 26 40 17 0 168 -133 290 -254
263 -263 488 -581 716 -1011 506 -955 868 -2254 973 -3494 8 -95 16 -175 18
-177 4 -4 20 254 44 681 20 372 23 1281 5 1560 -59 896 -202 1553 -445 2043
-351 705 -841 1056 -1582 1132 -69 7 -34 8 147 4 802 -15 1450 -164 2103 -485
395 -193 732 -411 1314 -848 173 -130 322 -240 330 -245 45 -27 -357 401 -640
679 -722 712 -1372 1162 -1959 1358 -252 84 -409 111 -650 111 -244 0 -410
-31 -602 -114 -49 -21 -88 -37 -88 -35 0 6 144 87 250 140 257 129 531 213
835 257 57 8 186 13 350 12 355 0 506 -21 1140 -154 182 -39 335 -70 340 -70
18 1 -40 28 -224 105 -905 377 -1668 521 -2221 419 -171 -31 -355 -104 -490
-193 -71 -47 -199 -169 -256 -244 -24 -32 -44 -57 -44 -54 0 13 209 442 251
514 91 158 196 281 307 360 34 25 62 46 62 48 0 6 -100 -25 -170 -52 -309
-121 -578 -355 -700 -607 -41 -85 -79 -213 -81 -275 -1 -33 -2 -32 -11 14 -29
159 -45 232 -98 435 -103 394 -104 396 -104 580 0 152 2 171 27 245 14 43 25
81 23 83 -2 2 -31 -23 -64 -55z"/>
</g>
</svg>
